<svg width="23" height="23" viewBox="0 0 23 23" fill="none" xmlns="http://www.w3.org/2000/svg">
<g clip-path="url(#clip0)">
<path d="M10.8936 3.74022L11.2022 2.7101L5.82591 1.09723C5.63775 1.04024 5.43181 1.09187 5.2915 1.23219L4.21625 2.30744C4.091 2.43269 4.03559 2.61171 4.06786 2.78594C4.10014 2.9601 4.21625 3.10691 4.37806 3.17896L9.21675 5.32946L9.65333 4.34668L5.53027 2.51388L5.8249 2.21925L10.8936 3.74022Z" fill="#FAB810"/>
<path d="M15.8876 0.537625C15.8876 0.240857 15.6473 0 15.35 0C15.3495 0 15.3495 0 15.3489 0C14.1662 0 13.0538 0.460723 12.2172 1.29732L7.65818 5.85589L5.80281 5.39189C5.6195 5.34619 5.42592 5.39939 5.29203 5.53327L4.21678 6.60852C4.0996 6.72571 4.04262 6.89023 4.06304 7.05424C4.08347 7.2182 4.17808 7.36444 4.32004 7.44941L6.89312 8.99345L8.43716 11.5665C8.52214 11.7085 8.66781 11.8031 8.83233 11.8235C8.85383 11.8262 8.87589 11.8273 8.89795 11.8273C9.03934 11.8273 9.17644 11.7714 9.27862 11.6704L10.3539 10.5951C10.4872 10.4612 10.541 10.2677 10.4953 10.0843L10.0318 8.23111L14.6635 3.64512C15.4538 2.81766 15.8887 1.73063 15.8876 0.537625ZM9.05705 7.68163C8.92209 7.81495 8.86782 8.0096 8.91352 8.19398L9.37752 10.0493L9.00442 10.4225L7.7458 8.32465C7.7001 8.24882 7.63719 8.18541 7.56142 8.14027L5.46362 6.88165L5.83672 6.50855L7.69209 6.97255C7.8754 7.01825 8.06898 6.96505 8.20286 6.83116L12.977 2.05702C13.4716 1.56188 14.0942 1.24091 14.7695 1.12423C14.663 1.78874 14.3603 2.40485 13.8958 2.89141L9.05705 7.68163Z" fill="#FAB810"/>
<path d="M14.7893 10.1316L13.1765 4.68542L12.1453 4.99083L13.6608 10.108L13.3345 10.3962L11.542 6.23817L10.5544 6.66397L12.6404 11.5027C12.7087 11.6607 12.8485 11.7769 13.0167 11.8145C13.056 11.8231 13.0952 11.8274 13.1345 11.8274C13.2641 11.8274 13.3909 11.7806 13.4899 11.693L14.6297 10.6877C14.7866 10.5493 14.8485 10.3327 14.7893 10.1316Z" fill="#FAB810"/>
<path d="M7.48411 21.1261C4.75538 22.4192 2.61477 22.5862 1.61247 21.5843C-0.124697 19.8472 1.76188 14.8001 6.00057 9.84377L5.4182 9.34567C0.769202 14.7817 -1.01891 20.0372 1.07036 22.1261C1.65389 22.7092 2.47803 23.0001 3.50022 23.0001C4.69177 23.0001 6.15231 22.6051 7.81208 21.8184L7.48411 21.1261Z" fill="#FAB810"/>
</g>
<defs>
<clipPath id="clip0">
<rect width="23" height="23" fill="white"/>
</clipPath>
</defs>
</svg>
