<svg width="79" height="28" viewBox="0 0 79 28" fill="none" xmlns="http://www.w3.org/2000/svg">
<path d="M18.27 17.912H18.648C19.14 17.912 19.386 17.672 19.386 17.192V11.126C19.386 10.682 19.14 10.46 18.648 10.46H18.27V8.354H24.102C25.818 8.354 27.102 8.852 27.954 9.848C28.818 10.844 29.25 12.302 29.25 14.222C29.25 15.314 29.058 16.298 28.674 17.174C28.29 18.038 27.708 18.728 26.928 19.244C26.16 19.748 25.218 20 24.102 20H18.27V17.912ZM23.598 17.912C24.486 17.912 25.098 17.612 25.434 17.012C25.782 16.4 25.956 15.47 25.956 14.222C25.956 12.938 25.782 11.99 25.434 11.378C25.098 10.754 24.486 10.442 23.598 10.442H22.716V17.912H23.598ZM34.5537 20.27C33.0417 20.27 31.8657 19.88 31.0257 19.1C30.1977 18.32 29.7837 17.18 29.7837 15.68C29.7837 14.168 30.1917 13.028 31.0077 12.26C31.8237 11.48 33.0057 11.09 34.5537 11.09C36.0897 11.09 37.2597 11.48 38.0637 12.26C38.8797 13.028 39.2877 14.168 39.2877 15.68C39.2877 17.18 38.8737 18.32 38.0457 19.1C37.2177 19.88 36.0537 20.27 34.5537 20.27ZM34.5537 18.128C35.0817 18.128 35.4477 17.942 35.6517 17.57C35.8677 17.186 35.9757 16.556 35.9757 15.68C35.9757 14.792 35.8677 14.162 35.6517 13.79C35.4477 13.418 35.0817 13.232 34.5537 13.232C34.0137 13.232 33.6417 13.418 33.4377 13.79C33.2337 14.15 33.1317 14.78 33.1317 15.68C33.1317 16.568 33.2337 17.198 33.4377 17.57C33.6417 17.942 34.0137 18.128 34.5537 18.128ZM39.9344 13.952C39.8744 13.712 39.7724 13.55 39.6284 13.466C39.4964 13.37 39.2984 13.322 39.0344 13.322H38.6564V11.36H42.1664L43.1744 15.752L44.2544 12.134H46.4504L47.5304 15.752L48.5384 11.36H52.0484V13.322H51.6704C51.4184 13.322 51.2204 13.37 51.0764 13.466C50.9324 13.55 50.8304 13.712 50.7704 13.952L49.3124 20H46.5584L45.3524 16.202L44.1464 20H41.3924L39.9344 13.952ZM51.9497 17.876H52.3277C52.5917 17.876 52.7777 17.816 52.8857 17.696C53.0057 17.576 53.0657 17.396 53.0657 17.156V10.91C53.0657 10.454 52.8197 10.226 52.3277 10.226H51.9497V8.084H56.4497V17.192C56.4497 17.648 56.6957 17.876 57.1877 17.876H57.5657V20H51.9497V17.876ZM60.9503 20.27C59.8823 20.27 59.0783 20.054 58.5383 19.622C58.0103 19.178 57.7463 18.566 57.7463 17.786C57.7463 16.886 58.0463 16.214 58.6463 15.77C59.2583 15.314 60.1643 15.044 61.3643 14.96L62.9482 14.852V13.898C62.9482 13.37 62.6723 13.106 62.1203 13.106C61.8083 13.106 61.5383 13.226 61.3103 13.466V14.06H58.5383V12.152C59.6783 11.444 60.9323 11.09 62.3003 11.09C63.6323 11.09 64.6343 11.378 65.3063 11.954C65.9783 12.53 66.3143 13.298 66.3143 14.258V17.354C66.3143 17.774 66.5063 17.984 66.8903 17.984H67.1063V20H64.5323L64.2623 18.794C63.8063 19.334 63.3383 19.718 62.8583 19.946C62.3783 20.162 61.7423 20.27 60.9503 20.27ZM61.7063 18.254C62.5343 18.254 62.9482 17.882 62.9482 17.138V16.526L61.7423 16.634C61.0943 16.682 60.7703 16.964 60.7703 17.48C60.7703 17.72 60.8483 17.912 61.0043 18.056C61.1723 18.188 61.4063 18.254 61.7063 18.254ZM67.4712 17.876H67.6512C68.1552 17.876 68.4072 17.648 68.4072 17.192V14.204C68.4072 13.748 68.1732 13.52 67.7052 13.52H67.4712V11.36H70.4952L70.6212 12.512C71.4012 11.564 72.5052 11.09 73.9332 11.09C75.0132 11.09 75.8052 11.354 76.3092 11.882C76.8132 12.398 77.0652 13.154 77.0652 14.15V17.192C77.0652 17.648 77.3112 17.876 77.8032 17.876H78.1452V20H73.6812V14.168C73.6812 13.796 73.6032 13.526 73.4472 13.358C73.2912 13.19 73.0572 13.106 72.7452 13.106C72.4092 13.106 72.1632 13.19 72.0072 13.358C71.8512 13.514 71.7732 13.784 71.7732 14.168V17.192C71.7732 17.42 71.8152 17.594 71.8992 17.714C71.9952 17.822 72.1572 17.876 72.3852 17.876H72.6192V20H67.4712V17.876Z" fill="white"/>
<g clip-path="url(#clip0)">
<path d="M10.8936 3.74022L11.2022 2.7101L5.82591 1.09723C5.63775 1.04024 5.43181 1.09187 5.2915 1.23219L4.21625 2.30744C4.091 2.43269 4.03559 2.61171 4.06786 2.78594C4.10014 2.9601 4.21625 3.10691 4.37806 3.17896L9.21675 5.32946L9.65333 4.34668L5.53027 2.51388L5.8249 2.21925L10.8936 3.74022Z" fill="#FAB810"/>
<path d="M15.8876 0.537625C15.8876 0.240857 15.6473 0 15.35 0C15.3495 0 15.3495 0 15.3489 0C14.1662 0 13.0538 0.460723 12.2172 1.29732L7.65818 5.85589L5.80281 5.39189C5.6195 5.34619 5.42592 5.39939 5.29203 5.53327L4.21678 6.60852C4.0996 6.72571 4.04262 6.89023 4.06304 7.05424C4.08347 7.2182 4.17808 7.36444 4.32004 7.44941L6.89312 8.99345L8.43716 11.5665C8.52214 11.7085 8.66781 11.8031 8.83233 11.8235C8.85383 11.8262 8.87589 11.8273 8.89795 11.8273C9.03934 11.8273 9.17644 11.7714 9.27862 11.6704L10.3539 10.5951C10.4872 10.4612 10.541 10.2677 10.4953 10.0843L10.0318 8.23111L14.6635 3.64512C15.4538 2.81766 15.8887 1.73063 15.8876 0.537625ZM9.05705 7.68163C8.92209 7.81495 8.86782 8.0096 8.91352 8.19398L9.37752 10.0493L9.00442 10.4225L7.7458 8.32465C7.7001 8.24882 7.63719 8.18541 7.56142 8.14027L5.46362 6.88165L5.83672 6.50855L7.69209 6.97255C7.8754 7.01825 8.06898 6.96505 8.20286 6.83116L12.977 2.05702C13.4716 1.56188 14.0942 1.24091 14.7695 1.12423C14.663 1.78874 14.3603 2.40485 13.8958 2.89141L9.05705 7.68163Z" fill="#FAB810"/>
<path d="M14.7893 10.1316L13.1765 4.68542L12.1453 4.99083L13.6608 10.108L13.3345 10.3962L11.542 6.23817L10.5544 6.66397L12.6404 11.5027C12.7087 11.6607 12.8485 11.7769 13.0167 11.8145C13.056 11.8231 13.0952 11.8274 13.1345 11.8274C13.2641 11.8274 13.3909 11.7806 13.4899 11.693L14.6297 10.6877C14.7866 10.5493 14.8485 10.3327 14.7893 10.1316Z" fill="#FAB810"/>
<path d="M7.48411 21.1261C4.75538 22.4192 2.61477 22.5862 1.61247 21.5843C-0.124697 19.8472 1.76188 14.8001 6.00057 9.84377L5.4182 9.34567C0.769202 14.7817 -1.01891 20.0372 1.07036 22.1261C1.65389 22.7092 2.47803 23.0001 3.50022 23.0001C4.69177 23.0001 6.15231 22.6051 7.81208 21.8184L7.48411 21.1261Z" fill="#FAB810"/>
</g>
<defs>
<clipPath id="clip0">
<rect width="23" height="23" fill="white"/>
</clipPath>
</defs>
</svg>
